# xmcd
#
# Track frame offsets:
#   150
#   26250
#   46755
#   67948
#   86893
#   107503
#   127495
#   148800
#   164995
#   181568
#
# Disc length: 2648 seconds
#
# Revision: 0
# Processed by: cddbd v1.5.1PL0 Copyright (c) Steve Scherf et al.
# Submitted via: uFREEDB ActiveX Control 1.5
#
DISCID=890a560a
DTITLE=Evandro Mesquita - Almanaque Sexual dos Eletrodomésticos e Outros Animais
DYEAR=1991
DGENRE=Blues
TTITLE0=O outro lado do espelho
TTITLE1=O sonho
TTITLE2=Knockin' on heavens door
TTITLE3=E só eu de negão
TTITLE4=Chacal Blues
TTITLE5=Minha sweet little Meg
TTITLE6=Câmera lenta
TTITLE7=Sem segredo
TTITLE8=Doce vida
TTITLE9=A dois passos do paraíso
EXTD=
EXTT0=
EXTT1=
EXTT2=
EXTT3=
EXTT4=
EXTT5=
EXTT6=
EXTT7=
EXTT8=
EXTT9=
PLAYORDER=
